# xmcd CD database file generated by OrangeCD 4.3
#
# Track frame offsets:
#	150
#	18510
#	38563
#	56310
#	85183
#	100635
#	120458
#	138955
#	167130
#	184705
#
# Disc length: 2663 seconds
#
# Revision: 2
# Processed by: cddbd v1.4PL0 Copyright (c) Steve Scherf et al.
# Submitted via: OrangeCD 4.3
#
DISCID=700a650a
DTITLE=Rory Gallagher - Against The Grain
DYEAR=1900
DGENRE=Blues
TTITLE0=Let Me In
TTITLE1=Cross Me Off Your List
TTITLE2=Ain't Too Good
TTITLE3=Souped-Up Ford
TTITLE4=Bought And Sold
TTITLE5=I Take What I Want
TTITLE6=Lost At Sea
TTITLE7=All Around Man
TTITLE8=Out On The Western Plain
TTITLE9=At The Bottom
EXTD=
EXTT0=
EXTT1=
EXTT2=
EXTT3=
EXTT4=
EXTT5=
EXTT6=
EXTT7=
EXTT8=
EXTT9=
PLAYORDER=
